/* XPM */
static char *_624127130560[] = {
/* columns rows colors chars-per-pixel */
"50 50 45 1 ",
"  c black",
". c #4C4C4C",
"X c #505050",
"o c #515151",
"O c #565656",
"+ c gray35",
"@ c gray27",
"# c #484848",
"$ c gray31",
"% c gray34",
"& c #494949",
"* c gray28",
"= c #3F3F3F",
"- c #434343",
"; c gray36",
": c gray29",
"> c #3A3A3A",
", c #444444",
"< c gray26",
"1 c #2F2E2F",
"2 c #6D4B50",
"3 c #89756B",
"4 c gray33",
"5 c #464646",
"6 c #585858",
"7 c #49494D",
"8 c #5A5A5A",
"9 c gray25",
"0 c #373737",
"q c #C0B4C3",
"w c #CCE3D1",
"e c #4D962F",
"r c #94B172",
"t c #403040",
"y c #CF966F",
"u c #D8A078",
"i c #F8D0B8",
"p c #393939",
"a c #29434F",
"s c #784040",
"d c #695069",
"f c #606060",
"g c #DC9A19",
"h c #414141",
"j c #3C3C3C",
/* pixels */
"                                                  ",
" ....X..o.O.+.......@....#.$....%&.....*.*...=&,. ",
" ....X....;...&:::::O....>......&.:$..&,.#.,...:$ ",
" ...X:&&,...&o:X:X&.1111111111&$::........:&.$:.. ",
" .#.@.&X:$%....::X.:1111111111X$.&o&::::::::&.&X& ",
" .,$.O.X&::::&o&111122333333221111$X:X&o&&&o:$::4 ",
" ....&...&X,:=$.111122333333221111:O&$.::X&:&::$$ ",
" 4&6&..#X&&X&:  223333337733333322  .$o&.O&.o&.$& ",
" ..::&:::&$$.&  223333337733333322  ....::&.*.:$= ",
" .O:$:$O$&:&  7733333333223333333377  &o.:$..:.$& ",
" .&.:::&&&$:  7733333333223333333377  &X.&o&:&X5. ",
" $&:%o:X&.O&  7733333333333333333377  .$:.o:$&:&8 ",
" 9.&o&&X.:$.  7733333333333333333377  :&&X&.::&:; ",
" &..$$&&X&    1122333333333333332211    ::0o&.X:& ",
" .$&::&$$.    1122333333333333332211    &$%*.:$.O ",
" &$X:$&:&X  11111122qqwwwwwwqq22111111  ,.&,:..$& ",
" .$&&X9&9&  11111122qqwwwwwwqq22111111  $&&$.:$&. ",
" &.$&&;:ee  771122qqwwwwwwwwwwqq221177  ee.$:..$& ",
" &$:.&X.ee  771122qqwwwwwwwwwwqq221177  eeO..:X.. ",
" .9$:.eerr  11777722333333333322777711ttrree:..$& ",
" ....:eerr  11777722333333333322777711ttrree&X&:$ ",
" ..,X&eerryyee1111113333333333111111eeyyrree.$$:& ",
" ,....eerryyee1111113333333333111111eeyyrree.&:&$ ",
" :::&X&&ee33eeuuuuqq1111111111qquuuuee33ee:.o:$:& ",
" .:85$.$ee33eeuuuuqq1111111111qquuuuee33ee$&:&X#& ",
" :.......oeerreeuuqq  eerree  qquueerree&.5:$&&o& ",
" .@&::::%.eerreeuuqq  eerree  qquueerree&Xo.%.&#. ",
" &o:X:X.$$:.eeeeuuiiiiiiiiiiiiiiuueeee4$&&p.,:.$& ",
" .$,::X&::&Xeeeeuuiiiiiiiiiiiiiiuueeee::&$:X&&X&& ",
" .&o&.o:X&+:aa  ssuuiiiiuuiiiiuuss  aa&O*:.o&.o:. ",
" ..::X&&X.:@aa  ssuuiiiiuuiiiiuuss  aa:::&X&&Xp&X ",
" &;&.;&,$:.X  qqqq  ssuuuuuuss  qqqq  :X&.o&:$$:& ",
" .::X..:$.:$  qqqq  ssuuuuuuss  qqqq  .::X&&*&:&$ ",
" %$&:&..$:  ddqqqqdddd111111ddddqqqqdd  .o&:$X&.$ ",
" &..&X$&:.  ddqqqqdddd111111ddddqqqqdd  :$.:+..:$ ",
" ,&,&&f$ssiiddqqssqqqq11ggggqqqqssqqddii  X...:.. ",
" #:%$&X&ssiiddqqssqqqq11ggggqqqqssqqddii  &:::&X& ",
" X&&:.X:  iiiiss11qqqqqqqqqqqqqq11ssiiii  X:X&.$. ",
" &:$:o&$  iiiiss11qqqqqqqqqqqqqq11ssiiii  ::X.&&: ",
" %.X:&.@o$      1111qqqq11qqqq1111      .h$&:&o:& ",
" .#$.4%&::      1111qqqq11qqqq1111      :$..&X$.: ",
" ..6:&$:X:X:$&  331111111111111133  gg$:%O:;&:&$. ",
" .%..&o.::X.::  331111111111111133  gg$...&&$:X46 ",
" .&$&%&:$&&$j,  aa33333333333333aa  :..o&$&:&...4 ",
" ..&,O&$&&$$&&  aa33333333333333aa  .:$..X..:o&:: ",
" $:....o&#&$X:  aaee          eeaa  #&:::::X.%&:. ",
" ..:$....::X&&  aaee          eeaa  o.&X:#:o&..%: ",
" $:&:::&$,.;&.$&    o$O&X&&X::    X&&@:&.X&X&::&* ",
" *@&:X4:o&:&&X,.    :&:&$.&o.&    o.&+.&o&&X.&X:X ",
"                                                  "
};
