/* XPM */
static char *_624124677301[] = {
/* columns rows colors chars-per-pixel */
"50 50 176 2 ",
"   c black",
".  c #2F2F2F",
"X  c #363535",
"o  c #383735",
"O  c #3D3D3D",
"+  c #4B2915",
"@  c #512C17",
"#  c #562F18",
"$  c #553218",
"%  c #5C3419",
"&  c #63361D",
"*  c #633A1B",
"=  c #693C1D",
"-  c #4F3626",
";  c #553524",
":  c #543828",
">  c #473A31",
",  c #673620",
"<  c #693621",
"1  c #6E3A23",
"2  c #613929",
"3  c #733C25",
"4  c #793F26",
"5  c #773C28",
"6  c #7B3E29",
"7  c #3C413F",
"8  c #6C401F",
"9  c #5E4026",
"0  c #44413A",
"q  c #574639",
"w  c #514236",
"e  c #6F4120",
"r  c #6D4825",
"t  c #68462F",
"y  c #744422",
"u  c #7A4425",
"i  c #754821",
"p  c #76432A",
"a  c #7D432A",
"s  c #714B28",
"d  c #7E4A2B",
"f  c #7A4A25",
"g  c #604131",
"h  c #6B4937",
"j  c #6E4B39",
"k  c #664C3A",
"l  c #3E4341",
"z  c #444544",
"x  c #444946",
"c  c #4E4B44",
"v  c #464A48",
"b  c #4B4B4B",
"n  c #514D49",
"m  c #4D524E",
"M  c #51504F",
"N  c #525252",
"B  c #565955",
"V  c #5A5B55",
"C  c #575B58",
"Z  c #5A5C5A",
"A  c #60564E",
"S  c #715845",
"D  c #5D615C",
"F  c #626056",
"G  c #63675F",
"H  c #64685F",
"J  c #636660",
"K  c #666A62",
"L  c #6A6D65",
"P  c #6E6E6D",
"I  c #6D7067",
"U  c #6E726A",
"Y  c #71756B",
"T  c #75796E",
"R  c #787B6F",
"E  c #7C7169",
"W  c #727770",
"Q  c #757A71",
"!  c #7B7E73",
"~  c #84432C",
"^  c #88462E",
"/  c #844B2C",
"(  c #8D4A2E",
")  c #904C2F",
"_  c #835226",
"`  c #87512B",
"'  c #8B542C",
"]  c #8D5A2A",
"[  c #915A2C",
"{  c #92552C",
"}  c #8B4433",
"|  c #944D32",
" . c #954838",
".. c #9D4E3A",
"X. c #965432",
"o. c #9C5433",
"O. c #965A32",
"+. c #9C5C35",
"@. c #A25636",
"#. c #A55B36",
"$. c #A85E37",
"%. c #A7533F",
"&. c #A65D39",
"*. c #AB5D3B",
"=. c #94612E",
"-. c #99612E",
";. c #9D6332",
":. c #9E6238",
">. c #A36534",
",. c #A56A34",
"<. c #AC633B",
"1. c #AF6D39",
"2. c #AA6737",
"3. c #B3663D",
"4. c #B46A3D",
"5. c #B96C3E",
"6. c #A97337",
"7. c #AA7139",
"8. c #B3733B",
"9. c #B77A3C",
"0. c #B97C3D",
"q. c #BD743E",
"w. c #835A42",
"e. c #895B44",
"r. c #93604A",
"t. c #866F5F",
"y. c #BF6746",
"u. c #B66B41",
"i. c #BA6D41",
"p. c #B66143",
"a. c #BD7342",
"s. c #C56E49",
"d. c #C06D43",
"f. c #C37443",
"g. c #C87745",
"h. c #C57A44",
"j. c #CA7D46",
"k. c #C77A48",
"l. c #CD7E48",
"z. c #CD754B",
"x. c #D37D4E",
"c. c #D67D50",
"v. c #7E8177",
"b. c #7E8279",
"n. c #BC803E",
"m. c #BD8240",
"M. c #82857C",
"N. c #85897E",
"B. c #A78976",
"V. c #C38341",
"C. c #CD8147",
"Z. c #CE8148",
"A. c #C88B43",
"S. c #D2844B",
"D. c #D6894C",
"F. c #D98C4E",
"G. c #DB914D",
"H. c #DA8552",
"J. c #DD8B52",
"K. c #DE9250",
"L. c #E18C56",
"P. c #E39355",
"I. c #E69856",
"U. c #858A81",
"Y. c #898D84",
"T. c #8E8E8E",
"R. c #858584",
"E. c #8B9187",
"W. c #8C9189",
"Q. c #91968D",
"!. c #92988F",
"~. c #969C92",
"^. c gray62",
"/. c #999D93",
"(. c #AEAEAE",
"). c #B6B6B5",
/* pixels */
"                                                                                                    ",
"  b m n m m b m N b Z M Z b b b b m b m z b m b b b b N m b b m N b M b b N b b m v m b M O b z m   ",
"  b b b b b b b b b Z b b b b b b b b b C b b b b O b m b b b b v b b M b b b z b z b z b b b b m   ",
"  b b b N b b b z b b b b N b N b b b b b b m b b b b b b b b N v b b b b b b b b b b b b M b b b   ",
"  b v b z b b M b b B b b b b b b m b b B b b b b b b z b l M M b b M b b b b b b b b b b b v M b   ",
"  b z M b C b M b b b b b b M b b b b b X b B m M b b b b b b b b b M M b b b m b b b N b b b b B   ",
"  b b b b b b b b b M z b O b b b b b b z P ~.~.!.~.Q.~.P v b N b b b C b b b b b N b b z b v b b   ",
"  C v C b b b b M v v M b b b M b b N M z R.! R.! M.P P K v b b N b O b b b M b b b b b N b b M b   ",
"  b b b b b b b b b b M b v C b O b B b v U ! Q ! b.J L D z N b N b b N b b b b b b b b b b b b O   ",
"  m B b M b b N M b b b M b b b b b v M v Z ! ! T M.U J x b M v b v b b b C b M b b b b b b b M b   ",
"  b b b b b b b b b b b M B v M b m b 7 m m T ! T b.Q Y v C O v M z M v b b b M b b M b b b M z m   ",
"  M v b B M v M b b N b B Z L v z z b.b.W x Q I L Q ! W N ! b.b.v v Z b.z b b m b b M b M z b b C   ",
"  z b b N v v M b b M b W ! ! Z J U.W U U b ! v.M.! ! ! Q W L U M.B U.N.R.v b b b M b b b v v b Z   ",
"  v b b N b v v M z v P W Q W Y Z ! b.! T J U Q ! v.T I R.W W W D W b.U.! P b b b z X M b b M b b   ",
"  b m b b b b M b b z P P W Q Q T D W b.> q k w.k r.w.h q K U T D U.M.M.R.! b b b N C z b b M b B   ",
"  b M M b b b v b M b b K ! Q Q ! Z w t ) @.+.<.y y.<.<.&.O.h x U.R.t.M.! m N b O b b z b b b M b   ",
"  b M v b M O b 7 b v m D I Q W K - d <.+.<.u.u.d l.a.i.u.u.d d V U Q ! B K z b b b b b b b M b b   ",
"  b b M v b Z b b b b U.b.B U Z - X.' u.u.a.a.k.` H.S.k.a.k.d i.d c D B v.M.m b b b b M b b b M b   ",
"  b M b b v M b b M L Q T T x : O.2.+.k.a.Z.Z.Z.[ J.H.Z.Z.H.O.k.u.d 0 M.M.N.T 0 M b N m b b M b b   ",
"  b O M b b M b b O U T b.W - X.u.8.:.Z.C.D.F.D.;.K.J.D.Z.F.:.F.a.i.s F ! ! T b b b v M b b b b b   ",
"  b b b b b m b b W B G Y V / 2.u.h.7.S.Z.F.J.F.-.P.D.S.D.D.:.K.j.a.4.k Y L Z D z b b v b n v b b   ",
"  m b z M b v M b T Y U.L t >.i.k.V.,.D.D.G.D.F.;.K.S.C.S.D.:.D.Z.h.a.+.c U R Y z N b b b M M v b   ",
"  z b b b b b N o T Y Y I ` 2.k.Z.Z.a.D.F.F.D.Z.-.G.S.C.S.S.,.G.C.C.q.q.k U Y T J b v v b v b v b   ",
"  b b b b b v c . R U U Z 2.a.j.Z.Z.n.D.F.J.Z.D.-.G.S.C.A.S.,.G.C.j.h.q.S Y U T J b b b N b M b b   ",
"  m b C z N b N x v v x 9 a.k.S.D.D.0.F.D.S.Z.S.-.L.G.S.D.G.,.G.Z.D.C.a.:.v x x b N N v b v M v b   ",
"  b b b b b z K ! L T U r j.Z.S.F.F.0.L.D.D.S.D.,.J.G.G.G.F.,.I.D.D.S.Z.:.m T Q R.W ! l b b v M b   ",
"  b z b b b b U ! Y L Y r Z.Z.D.D.D.0.F.D.C.S.S.,.F.G.G.F.F.>.I.Z.Z.S.S.1.B W v.R.! t.l Z b b v b   ",
"  b N b m b v U ! N.! T r j.Z.F.D.D.0.G.S.Z.S.S.-.G.F.G.D.D.>.I.D.Z.S.S.m.D I Q ! ! ! O z b b M b   ",
"  b m z b b v P ! ! ! Y r j.l.D.D.S.0.H.S.S.S.S.-.G.D.L.S.S.>.I.Z.Z.S.S.V.D ! ! ! Q U l v v M v b   ",
"  b b N v b z J G K U P r h.l.D.S.S.0.H.l.C.Z.C.-.F.S.D.S.H.>.P.Z.C.Z.S.A.Z W I U J Z l b b N b b   ",
"  b b b b n 7 x x x x x r l.S.S.S.S.0.D.l.j.S.j._ J.S.S.S.S.>.K.l.C.Z.Z.m.l x x v x x l v M o b b   ",
"  b Z b b Z b z 7 W.W.! r l.l.S.l.x.1.D.j.j.l.j._ L.l.l.l.S.{ K.j.j.Z.j.m.B N.M.D b N z b M m b b   ",
"  b b b M b b b O R.U.v.r C.Z.Z.S.S.8.S.l.C.S.Z._ H.l.l.l.Z.-.G.g.g.j.j.0.D T W K b v v v v b v N   ",
"  B m b b v b b O Y b.t.r C.S.Z.C.S.9.S.l.C.Z.l.[ H.g.C.C.j.>.G.g.2.3.5.n.D T I L N b b n M b b N   ",
"  v b b v M m b l U ! Y r j.Z.Z.C.Z.q.S.j.Z.Z.l.-.c.l.Z.j.l.O.F.O.^.(.B.V.B L G D b b b Z b b b b   ",
"  z b z v b D N l P K K r j.j.Z.C.C.,.x.C.Z.S.j._ J.j.S.C.l.] D.e > Y.j n.m U D D b N b b b b b b   ",
"  b b B M v z z 7 m m 7 r Z.j.Z.l.Z.6.S.S.l.S.S.{ J.C.S.C.S.] G.t.R.T.(.O.x m m b z z b b v b M b   ",
"  m v b b b z Y.~./.!.E.r Z.C.k.j.l.9.D.S.Z.S.S.{ J.C.C.C.D.] G.E X o P e Z E.E.E.R.Q O M b b M b   ",
"  v b M b M z Q T v.! I r j.Z.h.j.j.>.F.l.S.Z.l.8 G.g.C.C.l.o.F.A J n P % Z G L ! M.! O b b v v b   ",
"  B b M v b z P M.M.I P r j.k.h.g.j.[ c.C.Z.l.S.8 D.q.C.l.j._ D.- T.).n $ D Y I M.M.! v b b M b b   ",
"  b b b b B v Q M.v.U U r f.f.f.d.5.[ x.j.j.g.j.i S.q.h.g.g.i C.i $ $ i :.D v.b.R T ! v v m m b b   ",
"  b b C v b x Q R v.I K s f.d.i.3.3.[ z.d.g.d.f.* x.4.5.q.d.e h.4.f.4.f.6.B ! ! b.t.K 7 v b b N b   ",
"  M B b b v z J H Z D D r d.4.3.<.<.{ s.5.g.5.g.= h.<.<.3.4.3 f.#.#.X.#.,.l Z Z D C v l M b b B Z   ",
"  b b n b C b b 0 E.U.Q 2 @.@.@.@.@.' y.$.5.<.5.* 5.#.$.$.$.= 5.) X./ { ;.m W.~.L m v v v b b b N   ",
"  b b b z B b b l L ! b.2 o.o.o.o.| _ 3.@.3.*.3.* 5.#.#.@.#.& 3.~ d 5 / +.Z Q U J M b b b M b b b   ",
"  N b b b b b N l ! W t.; ( } ) ) ( u *.| o.@.#.* $.| { | | % @.4 u u 6 ' D T Q J b b M b C b v b   ",
"  b b b m b b b l ! U R ; ~ ~ ~ ~ 4 3 ..^ | o.) & @.^ ~ ^ ~ # | 3 5 4 4 p C W Q W b b b b b b B b   ",
"  b b b b b v v l W L G ; 6 5 6 3 1 = } ~ ~ ( ~ & ..~ 1 a 5 @ ^ 1 3 3 = p N W t.P M b M z b b b b   ",
"  v z b b N N b l D D N ; 5 5 3 3 1 & } 5 5 ^ 6 &  .5 3 5 1 + 6 & & 3 & 3 x J K D b b N b b N b b   ",
"                                                                                                    "
};
