/* XPM */
static char *_624117718544[] = {
/* columns rows colors chars-per-pixel */
"50 50 39 1 ",
"  c black",
". c #4C4C4C",
"X c #505050",
"o c #515151",
"O c gray32",
"+ c gray35",
"@ c gray27",
"# c #484848",
"$ c gray31",
"% c #535353",
"& c gray30",
"* c gray28",
"= c gray24",
"- c #434343",
"; c gray36",
": c gray33",
"> c #3A3A3A",
", c #494949",
"< c #444444",
"1 c gray26",
"2 c #4E4E4E",
"3 c #4B4B4B",
"4 c gray29",
"5 c gray34",
"6 c gray25",
"7 c gray20",
"8 c #555555",
"9 c #464646",
"0 c #414141",
"q c gray23",
"w c #3C3C3C",
"e c #3E3E3E",
"r c #3F3F3F",
"t c #585858",
"y c #373737",
"u c #565656",
"i c #5A5A5A",
"p c #606060",
"a c #393939",
/* pixels */
"                                                  ",
" ....X..o.u.+.......@....#.$....5,.....*.*...r,-. ",
" ....X....;...,44444u....>......,.4$..,<.#.1...4$ ",
" ...X4,,-...,o4X4X,..........4,$44........,..$4.. ",
" .#.@.,X4$5....44X.45......1.6X$.,o,4444444444,X, ",
" .-$.u.X,4444,o,.$4.7.5...9....$4.$X4X,X444X4$44: ",
" ....,...,X-4r$.4$.444*....#...$.44u,$.44X.4944$$ ",
" :,t,..#X,,X,4,X,,$X,.....X4444,:,w..$o,.$4.o,.$, ",
" ..44,444,$$.,+$e,5..4$.....X4X45.4$....4$.,9.4$r ",
" .u4$4$u$,4,X,4,4.,$4..,...$4.X,,4...u,X,,$..4.$, ",
" .,.444,,,$4o5,X4o.,45,445.5,$,,$1$,4.,X.,o,4,X9. ",
" $,45o4X,.u,u4.X,,o,.$X,.,...$$,4,$$4,.$4.o4$,4,i ",
" 6.,o,,X.4$...4$-,o.4$..44$,o...,X$,,$4,,X,.44,4; ",
" ,..$$,,X,,,,X,,X,,X,4,$$44.54$X,4;,.9$$44yo,.X4, ",
" .$,44,$$.,X,o.,44$$.,X$,,$$,,4o.,$,o,44,$5*.4$.u ",
" ,$X4$,4,X44.*o4$,4,X,,$.5,$$,4,X44.o4X,1.,-4..$, ",
" .$,,X6,6,,$i,4,$.,X$.,o,.,.,,$4o.,o,.44X,,$.4$,. ",
" ,.$,,;44.5,o4$,,X,4,X44.-.$#44@$4t4.o,..,.$4..$, ",
" ,$4.,X.,o.,$.44$$t,p$.,o,44a.,o,,X.4$.4$.u..4X.. ",
" .6$4.$4..u.uo,u.$4.,$4.o$$,44.o,.$4.$4...#$4..$, ",
" ....4$.49,u...4$..44$.#,44,$9$,,X,,X,,X,444,X,4$ ",
" ..<X,,X44,.4,X,4,o,.$,$X4$,4,o,.$$4$<.o4X4,.$$4, ",
" <....,o.,.44$e.,.544$.4$.4.,X$.9,4,X,5<<4*,.,4,$ ",
" 444,X,,Xao,..$4.:.X,,4.$4X4@44,o4$44..oX44.o4$4, ",
" .4i9$.$$.44u,4,X,44,$$0X.44X.,X$.44$5,44,$,4,X#, ",
" 4.......o,.o4t.o4X,.,44,;$,,*,4,$$,4<@X,.94$,,o, ",
" .@,44445..4$.4$..4$444X4oX:,o.,X;4@,o,4,Xo.5.,#. ",
" ,o4X4X.$$4.$45t@4.$4$44..$4.,,uX444.$:$,,a.<4.$, ",
" .$<44X,44,XX..,4,*,44,$$,4,5.,t..,X$,44,$4X,,X,, ",
" .,o,.o4X,+44,$X,.o4+$,,$e$.$.i@$4.1,X,u*4.o,.o4. ",
" ..44X,,X.4@,X$..4$-45,4o,4X......4$.+444,X,,Xa,X ",
" ,;,.;,<$4.X,4,tX,44..5.o,544444,o,4,o4X,.o,4$$4, ",
" .44X..4$.4$.,X+,,$4i,4:<.44$4X4X$.,X$.44X,,*,4,$ ",
" 5$,4,..$4..5*,$+44.o,..$4444,$a*$,..#o,.o,4$X,.$ ",
" ,..,X$,4.p4...45,4o,,X,4,X.,o,,$,4X,4:.4$.4+..4$ ",
" 1,-,,p$44$,4,X,4,.o,.;X,.$4.o,.$,.$$,,4.#X...4.. ",
" ,45$,X,,,4.,X$.,X$,,X...4$.4X.4$,X9.e,o,,,444,X, ",
" X,,4.X44.$4..$4#$,,.,.$4X$4.$X44.4.$4.$$4X4X,.$. ",
" ,4$4o,$,o,,X,4,,4,$5....4$94$.$+$,4,,p,4o44X.,,4 ",
" 5.X4,.@o$ooo4X,X,,..44,X,,5,144,;4X,.$,.0$,4,o4, ",
" .#$.:5,44444,4.4,,uX.,X$*,o544$.a,X.4$.4$..,X$.4 ",
" ..t4,$4X4X4$,,$#,,6$4..$4X,9#.$4,,$4.$45u4;,4,$. ",
" .5..,o.44X.44$$#.,X,14$..44X*...44$.4$...,,$4X:t ",
" .,$,5,4$,,$w1o.$4.X44..,o,...u,o,.$4..o,$,4,...: ",
" ..,<u,$,,$$,4444,u..,o,,X.a+.,.uX4o.4$..X..4o,44 ",
" $4....o,#,$X4X4,o,$4.$$,,$,,o.4,t,,#,44444X.5,4. ",
" ..4$....44X,,X.$$.44;,41,o.,o,@,o.,o.,X4#4o,..54 ",
" $4,444,$<.;,.$,4,i,o$u,X,,X44..,,X,,@4,.X,X,44,* ",
" *@,4X:4o,4,,X-..X#.4,4,$.,o.,o,.,o.,+.,o,,X.,X4X ",
"                                                  "
};
