/* XPM */
static char *_624124657324[] = {
/* columns rows colors chars-per-pixel */
"50 50 73 1 ",
"  c black",
". c #4C4C4C",
"X c #505050",
"o c #515151",
"O c #565656",
"+ c gray35",
"@ c gray27",
"# c #484848",
"$ c gray31",
"% c gray34",
"& c #494949",
"* c gray28",
"= c #3F3F3F",
"- c #434343",
"; c gray36",
": c gray29",
"> c #3A3A3A",
", c #444444",
"< c gray26",
"1 c gray25",
"2 c gray20",
"3 c #464646",
"4 c gray33",
"5 c #585858",
"6 c #3C3C3C",
"7 c #3E3E3E",
"8 c #5A5A5A",
"9 c #373737",
"0 c gray14",
"q c #252525",
"w c #272727",
"e c #282828",
"r c #7E7E7E",
"t c white",
"y c #E6E6E6",
"u c #EEF273",
"i c #F7FF00",
"p c gray17",
"a c #606060",
"s c #393939",
"d c #7A7E00",
"f c #B9BD3F",
"g c #FBFF80",
"h c #F2F83A",
"j c #4F5112",
"k c gray15",
"l c #232323",
"z c #7C8000",
"x c #7E803F",
"c c #B9BF00",
"v c #3D3F00",
"b c #353535",
"n c #DE782A",
"m c #EEB217",
"M c #FFEE04",
"N c #7C7E3F",
"B c #808080",
"V c #B7BD00",
"C c #6F3C15",
"Z c #B5980B",
"A c #FBF602",
"S c #FDF203",
"D c #222222",
"F c #FAF601",
"G c #EABA15",
"H c #6E3B14",
"J c #EABC14",
"K c gray11",
"L c #AD7B15",
"P c #505211",
"I c #AD7C14",
"U c gray21",
"Y c #414141",
/* pixels */
"                                                  ",
" ....X..o.O.+.......*....#.$....%&.....*.*...=&*. ",
" ....X....;...&:::::O....>......&.:$..&,.#.3...&$ ",
" ...X:&&*...&o:X:X&..........:&$::........&..$:.. ",
" .#.*.&X&$%....::X.:%......3.1X$.&o&::::::::::&X& ",
" .*$.O.X&::::&o&.$:.U.%...3....$:.$X:X&X:::X:$::4 ",
" ....&...&X*:=$.:$.:&:*....#...$.::O&$.::X.:3::$$ ",
" 4&5&..#X&&$&:&X&&$X&.....X::::&4&6..$o&.$:.o&.$& ",
" ..::&:::&$$.&+$7&%..:$.....X:X:%.:$....:$.&3.:$= ",
" .O:$:$O$&:&X&:&:.&$:..&...$:.X&&:...O&X&&$..:.$& ",
" .&.:::&&&$:o%&X:o.&:%&::%.%&$&&$3$&:.&X.&o&:&X3. ",
" $&:%o:X&.O&O:.X&&o&.$X&.&...$$&:#$$:&.$:.o:$&:&8 ",
" 1.&o&&X.:$...:$*&o.:$..::$&o...&X$&&$:&&X&.::&:; ",
" &..$$&&X&&&&X&&$&&X&:&$$::.%:$X&:;&.3$$::9o&.X:& ",
" .$&::&$$.&X&o.&::$$.&X$&&$$&&:o.&$&o&::&$%*.:$.O ",
" &$X:$&:&X::.*o:$&:&X&&$.%&$$&:&X::.o:X&3.&*:..$& ",
" .$&&X1&1&&$*0q0w.&X$.&o&.&.&&$:o.&o&.::$&&..:$&. ",
" &.$&&;::.%&w    X&:&X::.*.$#::*$:5:.o&....$:..$& ",
" &$:.&X.&o. rtyui p&a$.&o#::s.&X&&X.:$.:$.O...X.. ",
" .1$:.$:.spdfguhidjk&$:.o$$&::.o&.$:.$....&$:..$& ",
" ....:$.:q iiiiiiiz :$.#&::&$3$&&X&&X&&$&:..&X&:$ ",
" ..,X&&X diiz    iii                     X:&.$$:& ",
" ,....&o dizxrrrrzcidddddddddddddddddddv qU&.&:&$ ",
" :::&X&& di rtttt diiiiiiiiiiiiiiiiiiiiz  0.o:$:& ",
" .:83$.$ di rtttt dinnnnnnnnnnnnnnnnmMMMM w&:&X#& ",
" :...... didNBBBBdViCCCCCCCCCCCCCCCCZAASM D:$&&o& ",
" .*&:::: diiz    iii                diiFM e.%.&#. ",
" &X:X:X.$w nGiiiiiz :$::..$:.&&OX:: HniJn K.,:.$& ",
" .$,::X&:90CLJJJJzP0::&$$&:&%.&5..& HnzIn 0X&&X&& ",
" .&o&.o:X&+ Hnnnn e:+$&&$7$.$.8*$:. Hn Hn qo&.o:. ",
" ..::X&&X.:*0    :$*:%&:o&:X......:   :q  w&&Xs&X ",
" &;&.;&,$:.$U00pw&:&..%.o&%:::::&o&00e:60q6&:$$:& ",
" .::X..:$.:$.&X+&&$:8&:4,.::$:X:X$.&X$.::X&&*&:&$ ",
" %$&:&..$:..%*&$+::.o&..$::::&$s*$&..#o&.o&:$X&.$ ",
" &..&X$&:.a:...:%&:o&&X&:&X.&o&&$&:X&:4.:$.:+..:$ ",
" 3&*&&a$::$&:&X&:&.o&.;X&.$:.o&.$&.$$&&:.#X...:.. ",
" #:O$&X&&&:.&X$.&X$&&X...:$.:X.:$&X3.7&o&&&:::&X& ",
" X&&:.X::.$:..$:#$&&.&.$:X$:.$X::.:.$:.$$:X:X&.$. ",
" &:$:o&$&o&&X&:&&:&$%....:$3:$.$+$&:&&a&:o::X.&&: ",
" %.X:&.*o$ooo:X&X&&..::&X&&%&3::&;:X&.$&.Y$&:&o:& ",
" .#$.4%#:::::&:.:&&OX.&X$*&o%&:$.s&X.:$.:$..&X$.: ",
" ..5:&$:X:X:$&&$#&&1$:..$:X&3#.$:&&$:.$:%O:;&:&$. ",
" .%..&o.::X.::$$#.&X&3:$..::X*...::$.:$...&&$:X45 ",
" .&$&%&:$&&$63o.$:.X:&..&o&...O&o&.$:..o&$&:&...4 ",
" ..&,O&$&&$$&&:::&O..&o&&X.s+.&.OX:o.:$..X..:o&:: ",
" $:....o&#&$X:X:&o&$:.$$&&$&&o.:&5&&#&:::::X.%&:. ",
" ..:$....::X&&X.$$.::;&:3&o.&o&*&o.&o.&X:#:o&..%: ",
" $:&:::&$,.;&.$&:&8&o$O&$&&X::..&&X&&*:&.X&X&::&* ",
" **&:X4:o&:&&X*..X#.:&:&$.&o.&o&.&o.&5.&o&&X.&X:X ",
"                                                  "
};
