/* XPM */
static char *_624884885510[] = {
/* columns rows colors chars-per-pixel */
"50 50 124 2 ",
"   c #000000",
".  c #010C07",
"X  c #020F09",
"o  c #0B0B0A",
"O  c #03150D",
"+  c #0F100F",
"@  c #10100F",
"#  c #041D12",
"$  c #141312",
"%  c #1D1212",
"&  c #171818",
"*  c #1D1D1B",
"=  c #201902",
"-  c #261716",
";  c #221E1D",
":  c #052416",
">  c #082115",
",  c #062A1A",
"<  c #2C2203",
"1  c #22211F",
"2  c #37201F",
"3  c #123123",
"4  c #252524",
"5  c #282725",
"6  c #2B2A27",
"7  c #2B2B2A",
"8  c #352120",
"9  c #3F2E2C",
"0  c #353534",
"q  c #393734",
"w  c #3D3B37",
"e  c #3C3C3B",
"r  c #452928",
"t  c #473532",
"y  c #493433",
"u  c #403F3B",
"i  c #094229",
"p  c #0C5736",
"a  c #0D5837",
"s  c #0B5A38",
"d  c #115836",
"f  c #3D403E",
"g  c #38692F",
"h  c #564207",
"j  c #6B5208",
"k  c #43423E",
"l  c #456F2D",
"z  c #52742B",
"x  c #5A772A",
"c  c #5E7929",
"v  c #667C26",
"b  c #6A7E27",
"n  c #677C28",
"m  c #276447",
"M  c #326A4E",
"N  c #3F6450",
"B  c #444444",
"V  c #484641",
"C  c #444A45",
"Z  c #4B4945",
"A  c #4B4B4B",
"S  c #514F4A",
"D  c #51514A",
"F  c #525252",
"G  c #585650",
"H  c #555956",
"J  c #5C5A54",
"K  c #575C59",
"L  c #5A5A5A",
"P  c #615F59",
"I  c #416450",
"U  c #5C625F",
"Y  c #64625B",
"T  c #68655F",
"R  c #5F6562",
"E  c #557B64",
"W  c #587D66",
"Q  c #5A7E68",
"!  c #606562",
"~  c #6C6B64",
"^  c #656B68",
"/  c #6F706A",
"(  c #74716A",
")  c #79766F",
"_  c #717874",
"`  c #7D7B73",
"'  c #7E7F78",
"]  c #9F7C0B",
"[  c #A17C0D",
"{  c #778325",
"}  c #7C8524",
"|  c #98911F",
" . c #AC860E",
".. c #A1951E",
"X. c #AD991C",
"o. c #BA9F1A",
"O. c #BDA117",
"+. c #BEA01A",
"@. c #8A8B21",
"#. c #E6B113",
"$. c #E8B313",
"%. c #828077",
"&. c #85837A",
"*. c #88857E",
"=. c #8C8A7F",
"-. c #8E8C82",
";. c #898D88",
":. c #918F85",
">. c #879484",
",. c #8B918C",
"<. c #929086",
"1. c #959288",
"2. c #98968C",
"3. c #9C998F",
"4. c #8D9691",
"5. c #9A9790",
"6. c #959C95",
"7. c #9D9B91",
"8. c #959E99",
"9. c #9A9F98",
"0. c #A09E93",
"q. c #9CA099",
"w. c #A5A397",
"e. c #A6A498",
/* pixels */
"                                                                                                    ",
"  A A A A F A A F A F A L A A A A A A A B S A A A A A F A A A A F A A F A A A Z A A A A A f A B F   ",
"  A A A A A F A A F L A A A A A A 7 7 7 7 7 7 6 7 5 7 7 7 7 7 A A A A A A A A Z A A A B A A A A F   ",
"  A A A F A A A B A A A A F A A B o   o   o . o o   o     o   F A A A A A A A A A A A A A F A A A   ",
"  A A A B A A F A A H A A A A     e.w.w.3.3.3.3.7.7.5.4.4.4.  F A A F A A A A A A A C A A A B F A   ",
"  A B F A H A F A A A A A A 7     e.) ` * ; * ; * * * 1 1 *   F A A A F A A A F A A A F A A A A F   ",
"  A A A A A A A A A F B A e   @ $ 0.~ T o o o o o o o + + + o Z B A A H A A A A Z F A A B A A F A   ",
"  F A F A A A A A A A A A A   0.7.Y o o ) ) ) ) ( ) ) 4.e.w.8.$ $ B e A A A A A A F Z A F A A A A   ",
"  A A A A A A A A A A F A A   ( (   ( ) e.e.e.e.( -.w.( 9.8.8.9.8.  A F A A A A A A A A B A A F f   ",
"  A H A A A A H A A A A B f $ L P   ) ) 7.7.7.7.) -.3.` 8.9.8.8.8.& B f A H A F A A A A A A A A A   ",
"  A A A A A Z Z A A A A     (     $ 3.3.) ` ` ( e.=.( e.e.e.8.8.8.8.    A A A F A A F A A A F B A   ",
"  A A A F F A F A A F A     (     ( ( ( e.e.w.( e.=.( e.e.e.8.8.8.8.    A A A A A A F A A A A A H   ",
"  B A A A A Z F A A A A     (     ( ` ` 3.%.%.G 2.=.` e.e.w.9.9.8.8.    A F A A A F A A A A A A L   ",
"  A A A F A A A F B A A     (     ( e.e.G 5 5 4 G ~ ' ` ` %.` ` ' _     A B F A A B 0 F A A F B A   ",
"  A A A A A A A F A A A     (     ( e.e.  e.e.8.                        F B A A A A L B A A A A H   ",
"  A F F A A A A A A A A     (     ( 2.2.  e.e.,.7 7 7 7 7 7   7 7 7     F A A A B A A B A A A F A   ",
"  A A A B F f A f A A S     S     ( %.%.1 ( ( &.q.9.9.8.8.8.  8.8.8.    A A A A A A Z A A A F A A   ",
"  A A A A A L A A A H A           ( e.e.(     e.e.e.w.8.8.8.  8.8.8.    A F A A A A A F A A A A A   ",
"  A F A A A F A A F A A * & *     ( 1.1.&.4 6 ~ e.e.e.9.8.8.  8.8.8.    A F A A F A F A A A F A A   ",
"  A f F A A A A A A H A F F 7     Z ( ( e.( (   e.e.e.q.8.8.  8.8.q.    A F Z A A A A F A A A A A   ",
"  A A A A A A A A B A F A A         ( ( e.( (   e.e.e.e.8.8.  8.8.e.    F Z Z F A A A A B F A A A   ",
"  F A B F A A F A A A A 0 7 k 6 7 u V k <.*.*.7 Y &.e.e.8.8.  8.8.e.    7 B A F A A C A A F A A A   ",
"  B A A A A A A A Z A 7 6 7 <.*.*.:.k k k <.:.(   D e.e.q.q.  q.q.e.    f 7 0 B B A B A A B A A A   ",
"  A A A A A A A F e F   ( ( ( e.e.( e.e.  ( ( (   D e.e.w.e.  e.e.e.    8.    F F A A A F A F A A   ",
"  A A H Z F A F F A A   e u f :.:.*.:.-.  u u e   7 J J J J   J J J     H     5 5 5 7 7 7 5 F Z A   ",
"  A A A A A A A A F A   C C C e w -.w e Z , , , , , , , , , 0     j j j j j j j j j j j j   Z F A   ",
"  A B A A Z A A H A A   8.8.8.    (     e.a a a a d a a a a (     #.#.#.#.#.#.#.#.#.#.#.#.  A A A   ",
"  A F A A A F A F S A   A A A , , q     Q a p Q Q M a Q I I N     #.{ { { { { { { { { { {   A A A   ",
"  A F B A A F B A 4 4 ;     , a a   w w , , , E E M a W 0 0 ,     $.p a a a s @.s s } a p   F C A   ",
"  A A F A A F A A     y     a a a   ( (       a a a a a           #.d a a a p #.a s #.a a   F A A   ",
"  A A A A F A A 4 - - -     a a a   ( ( k J K : : : : : H H J     $.a a a @.@.n a a b @.@.  e A A   ",
"  A L A A L B B   % % K K K : : : U 7 7 ( *.*.Y K K K K 9.w.*.    #.a p @.n n a @.@.s #.#.  A A A   ",
"  A A A F A A A       8.8.8.      8.    ( ( ( e.8.8.8.8.e.e.(     #.a d #.a a a #.$.a #.$.  A A F   ",
"  H F A C * * *   V Z ' q.w.  U R e     5 7 6 e w e e q e w 7     h : > c a a a $.#.a c v   Z A F   ",
"  Z A 7 * R     Z ;.;.;.&.&.  8.8.  S A ! ! R R R R R R R R R R R R R ! # a p | x x | a p   A A A   ",
"  B A *   8.    ( 8.8.8.( (   8.8.  ` ' 8.8.8.8.8.8.8.8.8.8.8.8.8.8.8.8.  a a #.p a #.a p   A A A   ",
"  A A *   q.    ( w.q.w.( (   ' '   5 5 / / / / / / / / / / / / / / 8.8.^ # # z a a z ....  A F A   ",
"  F A *   e.    4 %.%.%.1 1   ( (   G F *.*.*.*.;.&.*.*.*.*.*.*.*.*.6.5.7 ] [ a a a a #.$.  A A A   ",
"  A A *   e.      ( ( (       ( (   ' ` 5.5.7.5.2.2.5.5.5.5.5.5.5.5.5.2.  #.#.p a a a #.#.  A A A   ",
"  H A B 0 7     e * * * e 0   ( (   1 ; 5 5 5 5 5 5 5 5 5 5 5 5 5 5 5 5 i l l X.a a X.l l   F A A   ",
"  A A A A f B 0 A 0 e q A Z 0 & * D           i   : i                . .s p p #.a s #.O O e F A A   ",
"  A A L A A A A F A F A F Z A     (           a   , a               #.#.p p p #.a s #.    A Z F A   ",
"  A L A A A F A A A A A A A F f e & 2 8 8     >.  C >.  8 2 2       < < O.p p g a a g     A F F H   ",
"  F B F A F A A A A A A e B F A A   y y r     m   3 m   r r y     e f f < O.O.O.+.+.X e e A A A F   ",
"  A A A A F A F B A A F A A A A A   t y r     p   , s   r r y     F A F   #.#.#.#.#.  A A F A A A   ",
"  F A A A A A F A A A A A A A o o 9 r r r     .     .   r r y t 9 o A B w % % < % % B A A H Z A A   ",
"  A A A A A A A A A A F A A o 9 r r r r r     B e e B   r r r y y 9 o o D B f C f f A F A A A F A   ",
"  A A Z A A A A A B A L A A   y y r r r r     C F A A   r r r y y y     A B A Z Z D A A A A A A B   ",
"  A Z A Z F F A F A A A Z F     o     o       A S A A       o     o     A H A A F A Z F A A F A A   ",
"                                                                                                    "
};
