/* XPM */
static char *_624124669022[] = {
/* columns rows colors chars-per-pixel */
"50 50 186 2 ",
"   c #000000",
".  c #070807",
"X  c #0B0B0B",
"o  c #0E0803",
"O  c #140C05",
"+  c #190F06",
"@  c #170E08",
"#  c #1B1007",
"$  c #171009",
"%  c #1D130A",
"&  c #151615",
"*  c #1C1C1C",
"=  c #1E1711",
"-  c #2B190E",
";  c #28150B",
":  c #341C0E",
">  c #2B1D14",
",  c #221F1E",
"<  c #361F10",
"1  c #3A1E11",
"2  c #3A220F",
"3  c #2A241F",
"4  c #3D2213",
"5  c #35241A",
"6  c #222222",
"7  c #2C2C2C",
"8  c #2C2926",
"9  c #362B26",
"0  c #342C29",
"q  c #353535",
"w  c #3C3D3C",
"e  c #432314",
"r  c #482617",
"t  c #4B2B16",
"y  c #492618",
"u  c #4C2C19",
"i  c #452819",
"p  c #532D1A",
"a  c #562E19",
"s  c #543315",
"d  c #553219",
"f  c #5A3619",
"g  c #5E381B",
"h  c #583517",
"j  c #623B1C",
"k  c #442F22",
"l  c #41302A",
"z  c #4A3221",
"x  c #463A31",
"c  c #4A3E34",
"v  c #563A2C",
"b  c #693622",
"n  c #653B21",
"m  c #6B3F23",
"M  c #633221",
"N  c #733B26",
"B  c #793F27",
"V  c #793D2A",
"C  c #3C413F",
"Z  c #6A411F",
"A  c #45423C",
"S  c #554538",
"D  c #6D4222",
"F  c #734525",
"G  c #7D4129",
"H  c #7D492A",
"J  c #7C4027",
"K  c #604131",
"L  c #6B4937",
"P  c #674A35",
"I  c #3E4341",
"U  c #434444",
"Y  c #444946",
"T  c #464A48",
"R  c #4B4B4B",
"E  c #4D524E",
"W  c #50544F",
"Q  c #525252",
"!  c #565A55",
"~  c #585C57",
"^  c #575B58",
"/  c #5A5C5A",
"(  c #585654",
")  c #61564F",
"_  c #5D625C",
"`  c #62665F",
"'  c #64685F",
"]  c #636660",
"[  c #666A62",
"{  c #6A6D65",
"}  c #6D7067",
"|  c #6E726A",
" . c #71756C",
".. c #75796E",
"X. c #787B6F",
"o. c #727770",
"O. c #757A71",
"+. c #7B7E73",
"@. c #84442C",
"#. c #834C2D",
"$. c #8C4A2E",
"%. c #88452E",
"&. c #8D532F",
"*. c #87532C",
"=. c #8D4931",
"-. c #954E32",
";. c #974A38",
":. c #8E5331",
">. c #955432",
",. c #9B5434",
"<. c #945A32",
"1. c #9C5C34",
"2. c #9F5C38",
"3. c #A15735",
"4. c #A45A36",
"5. c #A45D39",
"6. c #A95B3A",
"7. c #9E6436",
"8. c #A46337",
"9. c #A56339",
"0. c #AC643B",
"q. c #AD6B3B",
"w. c #A86937",
"e. c #B4663C",
"r. c #B26C3E",
"t. c #B96A3E",
"y. c #AC733C",
"u. c #AE793E",
"i. c #B4713E",
"p. c #BC733E",
"a. c #B47C3F",
"s. c #BF7A3F",
"d. c #C1733F",
"f. c #885B44",
"g. c #93604A",
"h. c #B76F40",
"j. c #B76643",
"k. c #AD7641",
"l. c #B67341",
"z. c #BC7342",
"x. c #B17B41",
"c. c #BE7843",
"v. c #C36A49",
"b. c #C27443",
"n. c #C87746",
"m. c #C47B44",
"M. c #CB7D46",
"N. c #C67D48",
"B. c #CC7E49",
"V. c #C47648",
"C. c #D37C4E",
"Z. c #7D8176",
"A. c #7E8279",
"S. c #82857C",
"D. c #85897E",
"F. c #C58445",
"G. c #CC8147",
"H. c #CD8E46",
"J. c #CD8149",
"K. c #D2844B",
"L. c #D9874F",
"P. c #D58A4C",
"I. c #D98C4C",
"U. c #D28547",
"Y. c #CD9047",
"T. c #CF9148",
"R. c #D09047",
"E. c #D5964C",
"W. c #DB944E",
"Q. c #D68250",
"!. c #DD8A54",
"~. c #DB8653",
"^. c #DD9650",
"/. c #E09A4F",
"(. c #E08F53",
"). c #E39C52",
"_. c #E89F57",
"`. c #E9A257",
"'. c #858A81",
"]. c #898D84",
"[. c #8B9187",
"{. c #8C9189",
"}. c #91968D",
"|. c #92988F",
" X c #969C92",
".X c #999D93",
/* pixels */
"                .                                                                                   ",
"  R R E R Q R R Q R ( R / R R R R R R R T R R Q R R R Q R R R R ( R R R R R R T R T R R R U R U R   ",
"  R R R R E E R R R / R R R R R R R R R ^ R R R R w R R R R R Q R R R R Q R R T R R R U R R R R E   ",
"  R R R Q R R R U R R R R Q R Q R Q R R R R R R R R R R R R T Q R R R R R R R R R R R R R R R R R   ",
"  R T R U R R Q R R ( R R R R R R R R R ( R R R R R R U R I Q R R R Q R R R R R R R T R T R R Q R   ",
"  R U Q R ( R Q R R R R R R Q R R R R R q R ^ E Q R R R R R R Q R R R Q R R R R R R R Q T Q R R (   ",
"  R R R R R R R R R Q U R w R R R R R R U |  X X}. X|. X| T R Q R R R ( R R R R T Q R R U R R R E   ",
"  ( R ( R R R T R R R R R R R Q R R Q Q U '.+.'.O.'.| { [ T R R Q R w R R Q Q R R E R R Q R R R R   ",
"  R R R R R R R R R R Q R R / R C R ( R T | +.O.+.g.] [ _ I Q R ( R R Q R R R R R R R R U R R Q I   ",
"  R ( R R R R ( R R R R E R R T R R T E T _ O.+.o.{.| ] I E Q T T T R R R ( R Q R R R R R R R R T   ",
"  R R R R R T T R R R R E ( R Q T E R C E E  .A.o.A.O.o.I ^ C I Q U E T R R T R R R Q R R R Q U R   ",
"  R R R ( Q R Q R R Q R ( / [ T R U A.A.O.U O.} o.o.A.o.Q A.A.'.T T ^ A.T R R Q R R Q R R R R U /   ",
"  U R R Q T T Q R R R R o.+.+./ _ '.o.| | R +.Z.S.+.+.+.o.o.| | S.! '.'.g.R R R R R R R R R R R /   ",
"  T R R Q R R R Q U R | o.O.o.o./ +.A.+. .[  .X.+.Z.o.} '.o.o.o._ | '.A.'.| R R R R q Q R R Q R R   ",
"  R R R R R R R R R U | | o.O.O.o.^ o.+.x S L f.P g.f.P S [ o.o._ '.'.A.{.A.R R R Q ( R R R R R (   ",
"  R Q Q R R R T R Q R R [ +.o. .A.! { v #.7.=.H n n n s e 3 I _ | A.A.'.'.I Q R w R R w R R R Q R   ",
". R Q R R Q w T U T T E _ | ..A.O.A #.w.h.x.V.:.H D m g u 4 2 = ..A.O.+.! [ A R Q T T E R R Q R R   ",
"  U R R U R / R T R R '.A.Q | { S H j.h.z.T.N.9.8.:.F n z r 2 @ . W _ ! A.Z.E R R T R E R R R R R   ",
"  R Q R R R Q R T Q [ O.....U c <.1.l.m.J.E.V.k.q.8.H j f u e $   . A S.S.S...C Q R ( R R R Q R R   ",
"  R w Q R R Q R R w | X.A.A.x :.l.9.G.J.K.E.N.j.l.k.7.j g d t %     X } Z.Z...R R R T Q R R R R R   ",
"  R R R R R E R R o.( ` X.[ H r.G.l.K.I.!.W.J.k.h.l.q.j f d t $       * X.} ~ _ U R U R R R R R E   ",
"  E R U E R R E R O. .'.| z 2.z.P.i.L.^.P.E.N.c.l.l.x.j f d t %         ! | +. .U Q R R R Q R R R   ",
"  U R R R R T Q q .... .] <.5.B./.y.U.(.U.R.Q.J.l.l.k.D f f r +         & } | X.] R U R R R R R E   ",
"  R R R T Q T R 0 X.| } / 9.9.J.`.s.U.I.G.Y.Q.F.l.l.u.Z g f t %         . } | ..[ R R R Q R R R R   ",
"  E R / U Q R Q T T T T 2 j.j.G.`.m.P.P.K.Y.!.F.l.l.F.g f h z %           T Y U E Q ^ I R R R R T   ",
"  R R R R R U [ +.{  . .t 0.l.P.`.m.K.P.K.Y.!.L.l.l.u.D g h t O           E X.X.'.o.O.I R R R E R   ",
"  R U R R T T  .+. .{  .g q.K.L.`.c.K.K.K.H.I.K.l.l.F.D Z h t O           ^ O.+.'.O.'.I ( R R R R   ",
"  R Q R E R R { +.D.+.O.g h.I.L._.m.K.K.K.R.I.K.l.z.k.D Z h t +           _ { +.A.O.g.w U R R R R   ",
"  R Q U R R U } +.+.+. .j z.I.L.).m.G.G.G.Y.!.G.r.l.u.Z j g e +           _ O.Z.A.o.o.I R R R R T   ",
"  R R E R R U [ ' [ | } j m.I.U.).c.G.B.B.H.~.B.r.r.y.F Z t k #           ^ o.| { ] / C R R Q R R   ",
"  R Q T R Q A Y Y Y Y Y f M.I.L.).c.B.B.B.H.~.M.i.r.u.D ) R k %           I I T T I I I R R q R Q   ",
"  R / T R / T U C {.{.X.s M.K.K.).i.B.G.U.H.Q.m.r.q.a.Z 3 Y 9 #           ! '.S.] R Q R R Q E R T   ",
"  R R R Q R R R I '.'.O.z z.J.K./.i.G.B.G.H.n.B.r.r.u.m ( w / +           _ X.o.[ E T R U R R T Q   ",
"  ( R R R R R R w | A.A.h m.J.G.).p.M.U.C.H.L.G.r.i.u.4 C * q @           / | | [ Q R T E Q R R E   ",
"  T R R R R R R I | g.o.f m.J.G.).t.B.U.J.F.!.M.i.i.a.: w 8 q @           ! { ` ` Q R R ( R R R E   ",
"  U R U T R ] R C { o.[ s B.B.K.W.r.B.G.U.P.!.G.i.i.u.2 U R > @           E | _ / U Q R R R R R R   ",
"  R R ( R R T U C E E C g m.M.B./.q.U.B.U.F.I.M.r.r.y.s - ; r @           U E W Q I I I R R T Q R   ",
"  E R R R R U ]. X.X|.{.d M.B.G.).z.U.G.K.m.L.d.q.q.y.u i e 4 O           / [.[.{.'.A.I Q R R R R   ",
"  R R E R Q U o.X.Z.X.| h M.M.M.^.h.B.B.U.V.U.d.9.8.w.u e e e o           ^ ` [ A.A.A.I Q R R R R   ",
"  ( R E R R U | S.S.} } f m.B.M.I.w.C.B.B.F.U.t.1.1.1.u r r 4 O           _  .| A.'.g.U R U Q R T   ",
"  R R R R Q T O.S.+.} | h p.m.b.E.8.n.M.n.b.d.0.>.>.&.a y e e @           _ +.Z.+.o.+.T T Q E R R   ",
"  R R / R T T O.X.S.| [ j m.M.t.G.5.b.m.b.p.p.4.-.$.>.t y e 1 o           ! +.+.+.A.[ C T R R R R   ",
"  Q ( R R R U ] ' / _ _ j v.M.0.U.1.t.d.t.t.r.3.$.@.%.t e 1 1 o           I / / _ ^ I I Q R Q Q /   ",
"  R R R R ^ T T C ].D.X.s j.d.4.d.3.6.e.e.r.0.-.J J V e e e 1 @ X X X X X E }..X[ E T R T R R R Q   ",
"  R R R I ^ R Q I [ A.A.s v.e.,.d.-.3.4.6.6.3.%.N N j 4 1 1 - = * * & & * / o. .] Q R R R Q R R R   ",
"  Q R R R R R Q I Z.o.A.s t.3.-.e.=.-.-.;.;.g.V b b a e < > , , * 6 * 6 6 /  .O.[ R R R R ( R T E   ",
"  R R R E R E E I Z. .g.s 3.-.$.3.@.%.=.@.-.;.N p k 9 8 7 7 7 7 7 q 7 7 q Q | o.o.R R Q R R R ( R   ",
"  R R T R R T I I | ' ` s -.$.J ;.V J J b N l 0 q 0 q w q q q q q q C q q E | +.o.Q R R T R R T T   ",
"  R T T R E Q R I ] / Q s @.@.N m p 5 9 7 7 q q U I w U I x U C U I T T U Y ] [ ` T T Q R R Q T E   ",
"                                                                                                    "
};
