/* XPM */
static char *_624121322056[] = {
/* columns rows colors chars-per-pixel */
"50 50 222 2 ",
"   c #576372",
".  c #556573",
"X  c #566472",
"o  c #576472",
"O  c #566572",
"+  c #566473",
"@  c #546673",
"#  c #576374",
"$  c #566375",
"%  c #576574",
"&  c #586371",
"*  c #586372",
"=  c #586373",
"-  c #596571",
";  c #5A6470",
":  c #5A6471",
">  c #5B6471",
",  c #5A6670",
"<  c #5B6771",
"1  c #586473",
"2  c #596473",
"3  c #596573",
"4  c #5A6472",
"5  c #5B6572",
"6  c #5A6473",
"7  c #5B6473",
"8  c #5B6573",
"9  c #5A6672",
"0  c #5B6672",
"q  c #5B6772",
"w  c #5B6773",
"e  c #5C6572",
"r  c #5C6473",
"t  c #5D6473",
"y  c #586374",
"u  c #596475",
"i  c #5A6574",
"p  c #5B6574",
"a  c #5A6674",
"s  c #5C6674",
"d  c #5D6674",
"f  c #5C6675",
"g  c #5D6675",
"h  c #5E6675",
"j  c #62707D",
"k  c #60707E",
"l  c #60717E",
"z  c #63707E",
"x  c #62717E",
"c  c #62707F",
"v  c #62727F",
"b  c #63727F",
"n  c #62737F",
"m  c #617180",
"M  c #627080",
"N  c #637181",
"B  c #627281",
"V  c #637382",
"C  c #627283",
"Z  c #708191",
"A  c #7B8898",
"S  c #7B8B9A",
"D  c #7C8999",
"F  c #7D8A9A",
"G  c #7C8B9B",
"H  c #798D9B",
"J  c #7A8C9A",
"K  c #7B8C9B",
"L  c #7A8D9B",
"P  c #7C8C9B",
"I  c #7C8D9B",
"U  c #7E8D9A",
"Y  c #7C8E9A",
"T  c #7C8E9B",
"R  c #7C8B9D",
"E  c #798D9C",
"W  c #798D9D",
"Q  c #7B8D9C",
"!  c #7A8C9D",
"~  c #7B8D9D",
"^  c #798E9C",
"/  c #7B8D9E",
"(  c #798E9E",
")  c #7B8E9E",
"_  c #7B8E9F",
"`  c #7B8F9F",
"'  c #7C8C9C",
"]  c #7D8C9C",
"[  c #7C8D9C",
"{  c #7C8C9D",
"}  c #7E8C9C",
"|  c #7D8E9C",
" . c #7C8E9D",
".. c #7D8E9D",
"X. c #7C8F9D",
"o. c #7F8E9D",
"O. c #7F8F9D",
"+. c #7C8D9E",
"@. c #7D8D9E",
"#. c #7C8D9F",
"$. c #7D8D9F",
"%. c #7C8E9F",
"&. c #7F8F9E",
"*. c #7F8F9F",
"=. c #7D8DA0",
"-. c #7F8EA1",
";. c #7C90A0",
":. c #818C9D",
">. c #808E9D",
",. c #818E9D",
"<. c #818D9E",
"1. c #808F9E",
"2. c #818E9F",
"3. c #80909E",
"4. c #80909F",
"5. c #82909E",
"6. c #8090A0",
"7. c #8798A5",
"8. c #8699AA",
"9. c #8C9BAD",
"0. c #8B9DAE",
"q. c #8B9EAE",
"w. c #8C9DAE",
"e. c #8FA1B0",
"r. c #94A7B5",
"t. c #96A8B4",
"y. c #97A8B4",
"u. c #96A9B4",
"i. c #96A8B5",
"p. c #96A9B5",
"a. c #96A8B6",
"s. c #97A8B6",
"d. c #96A9B6",
"f. c #96A8B7",
"g. c #97A9B7",
"h. c #97AAB6",
"j. c #97AAB7",
"k. c #98A9B7",
"l. c #98AAB6",
"z. c #97A9B8",
"x. c #9AAAB9",
"c. c #9BAFBF",
"v. c #9DAFBF",
"b. c #9BB0BF",
"n. c #9CB0BE",
"m. c #9DB0BE",
"M. c #9CB0BF",
"N. c #9FB1BF",
"B. c #9DAFC0",
"V. c #9CB0C0",
"C. c #9CB1C1",
"Z. c #9DB2C0",
"A. c #9DB2C1",
"S. c #A3B7C7",
"D. c #A7B9C7",
"F. c #A4B8C8",
"G. c #A7B9C9",
"H. c #ABBDCB",
"J. c #A9BECB",
"K. c #A9BDCD",
"L. c #ABBCCD",
"P. c #ABBDCD",
"I. c #A9BECD",
"U. c #AABFCD",
"Y. c #A9BDCE",
"T. c #A9BDCF",
"R. c #ABBCCF",
"E. c #A9BFCE",
"W. c #AABECE",
"Q. c #ABBECE",
"!. c #AABFCE",
"~. c #ABBFCF",
"^. c #ACBDCC",
"/. c #AEBDCE",
"(. c #ACBECE",
"). c #ADBFCE",
"_. c #AABED0",
"`. c #ADBED0",
"'. c #ACBFD0",
"]. c #ADBFD0",
"[. c #AFBED0",
"{. c #AEC0CD",
"}. c #ACC0CE",
"|. c #ADC1CF",
" X c #AEC0CF",
".X c #AEC1CF",
"XX c #ACC0D0",
"oX c #ADC1D1",
"OX c #AFC0D1",
"+X c #AEC2D2",
"@X c #B4C6D5",
"#X c #B6C7D4",
"$X c #B7C7D4",
"%X c #B7C8D5",
"&X c #B7C9D6",
"*X c #C1D4E0",
"=X c #C8DAE6",
"-X c #CBDEEA",
";X c #CADFEA",
":X c #CDDDEA",
">X c #CCDFEB",
",X c #CDDFEB",
"<X c #CFDFEC",
"1X c #CBE0EB",
"2X c #CCE0EB",
"3X c #CCE1EC",
"4X c #CDE1EC",
"5X c #CEE0EC",
"6X c #D0E3EF",
"7X c #D1E5F1",
"8X c #D2E5F0",
"9X c #D2E5F1",
"0X c #D1E6F0",
"qX c #D2E7F1",
"wX c #D1E5F2",
"eX c #D2E5F2",
"rX c #D2E6F3",
"tX c #D3E6F3",
"yX c #D4E6F1",
"uX c #D5E5F3",
"iX c #D4E6F3",
"pX c #D2E6F5",
/* pixels */
"* - * - i - - - - i % - - - - - i o - i i u i i - i - - -   u i - i - - - - - u i i i - * - - r r r ",
"* h.x.h.z.l.h.h.h.x.h.h.h.h.h.x.z.h.h.z.e.Z / r.r.h.t.h.h.h.z.r.s.s.r.s.l.r.s.r.h.r.h.h.s.s.s.7.*.- ",
"* '.XXXX'.[.'.'._.XX_.}._.XXXXXX'.'.'.'.A.- R '.'.(.!.!.!.!.!.!.(.(.(.!.(.(.!.!.!.!.!.!.(.(.!.9.K   ",
"* !.!.!.(.!.!.!.!.!.}.!.!.!.!.!.!.!.!.!.B.* R !.!.!.!.!.!.!.!.!.!.!.!.!.!.!.!.!.!.!.!.!.!.!.(.q./   ",
"  !.!.!.}.!.!.!.!.!.!.!.!.!.!.!.!.!.!.!.B.* =.!.!.!.!.!.!.!.!.!.!.!.!.!.!.!.!.!.!.!.!.!.!.!.(.q./ * ",
"* !.!.!.!.!.!.!.!.!.!.!.!.!.!.!.!.!.!.!.M.* K !.!.!.!.!.!.!.!.!.!.!.!.!.!.!.!.!.!.!.!.!.!.!._.0./ * ",
"* !.!.!.!.!.!.!.!.!.!.!.!.!.!.!.!.!.!.!.M.* *.!.!.!.!.!.!.!.!.!.!.!.!.!.!.!.!.!.!.!.!.!.!.!.!.0.K * ",
"* !.!.!.!.!.!.!.!.!.!.!.!.!.!.!.!.!.!.!.M.* *.!.!.!.!.!.!.!.!.!.!.!.!.!.!.!.!.!.!.!.!.!.!.!.!.9./ * ",
"* !.!.!.!.!.!.!.!.!.!.!.!.!.!.!.!.!.!.!.M.  =.!.!.!.!.!.!.!.!.!.!.!.!.!.!.!.!.!.!.!.!.!.!.!.!.q./ * ",
"* !.!.!.!.!.!.!.!.!.!.!.!.!.!.!.!.!.!.!.B.  / E.!.!.!.!.!.!.!.!.!.!.!.!.!.!.!.!.!.!.!.!.!.!.!.9.K * ",
"* !.!.!.!.!.!.!.!.!.!.!.}.!.}.}.!.!.!.!.B.  *.}.!.!.!.!.!.!.!.!.!.!.!.!.!.!.!.!.!.!.!.!.!.!.!.q./ * ",
"* A.A.A.A.A.A.A.A.A.A.A.A.A.C.A.A.A.A.A.r.k X.A.B.C.C.C.c.c.c.c.c.c.b.C.c.c.c.c.c.c.c.c.c.B.B.8./ * ",
"* f f f f f f f f f r f f f i i - - f r i i i - i - f i - - i i i - f i i - i i i - f f - f u - r - ",
"* K K K K K K S F ,.k *.K *.K *.*./ / *./ *./ X.*.K *./ / *.K *.X./ o X.*.K *./ K K K *./ *.*.S |   ",
"* ;X;X;X;X:X:X;X=X4.B 8X;X;X,X1X1X:X1X1X,X;X1X;X:X1X,X,X1X;X:X1X:X*X- / :X3X1X1X1X1X1X1X,X<X,X3X:X  ",
"* !.!.!.!.!.!.!.!.*.B XX!.!.!.!.}.!.!.!.!.!.!.E.}.}.!.!.!.E.}.}.!.G.- / !.}.E.}.}.!.}.}.!.!.!.!.}.  ",
"* !.!.!.!.!.!.!.!.4.k @X!.!.!.!.}.!.!.!.!.!.!.!.!.!.!.!.!.!.!.!.XXS.w ;.}.}.E.!.!.!.!.!.!.!.!.!.!.* ",
"* !.!.!.!.!.!.!.!.4.k XX!.!.!.!.E.!.!.!.!.!.!.!.!.!.!.!.!.!.!.!.XXS.9 X.E.E.!.!.!.!.!.!.!.!.!.!.!.* ",
"* !.!.!.!.!.!.!.!.*.n XX!.!.!.!.!.!.!.!.!.!.!.!.!.!.!.!.!.!.!.!.}.A.o ;.E.!.!.!.!.!.!.!.!.!.!.!.!.* ",
"* !.!.!.!.!.!.!.}.| V XX!.!.!.!.!.!.!.!.!.!.!.!.!.!.!.!.!.!.!.!.}.F., ;.E.E.!.!.!.!.!.!.!.!.!.!.!.* ",
"* !.!.!.!.!.!.!.!.*.k .X!.!.!.!.!.!.!.!.!.!.!.!.!.!.!.!.!.!.!.!.}.S.- X.!.!.!.!.!.!.!.!.!.!.!.!.!.* ",
"* !.!.!.!.!.!.!.!.*.V XX!.!.!.!.!.!.!.!.!.!.!.!.!.!.!.!.!.!.!.!.}.S.w X.!.!.!.!.!.!.!.!.!.!.!.!.!.* ",
"* !.!.!.!.!.!.!.}.6.B XX!.!.!.!.!.!.!.!.!.!.!.!.!.!.!.!.!.!.!.!.}.S.- / !.!.}.!.!.}.!.}.!.!.!.!.!.* ",
"* XXXXXXXX'.XXXXXX6.V +XXXXX'.XX}.XXXXXXXXXXXXXXXXXXXXXXXXXXXXXXXXD.w ;.XXXXXX_.XX_._.XXXXXXXXXXXX* ",
"* K K K S F S K K *.k F / K F F / S K / / F | K / K S K / S K / F *.; *.K K *.S / S | / K / K R *.  ",
"  S S F S A S A D A A D F S S F F S F A S $ ,.,.| *.*.,.,.*.*.,.*.R S F F S F F F F F F F F F :.S   ",
"* eXeX4X6XeX6X6X8X8X8X8X6X6XeX6X6XeX8X8X@X$ S eXyXyXeXpXeXeXeXeXeXeXeXeXyXeXeXeXyXeXeXeXeXeXeXx./ * ",
"* Y.!.H.!.L.(.(.Y.Y.Y.Y.(.L.!.!.!.!.Y.!.v.  | H.H.!.!.Y.E.E.H.!.K.!.!.!.(.(.(.(.(.(.!.!.}.!.(.9./   ",
"* !.!.!.!.!.!.!.!.!.!.!.!.!.!.!.!.!.!.!.M.- R !.!.!.!.!.!.!.!.!.!.!.!.!.!.!.!.!.}.!.!.!.!.!.!.w.K * ",
"* !.!.!.!.!.!.!.!.!.!.!.!.!.!.!.!.!.!.!.b.o | !.!.!.!.!.!.!.!.!.!.!.!.!.!.!.!.!.!.!.!.!.!.!.(.w./ * ",
"* !.!.!.!.!.!.!.!.!.!.!.!.!.!.!.!.!.!.!.b.o K _.!.!.!.!.!.!.!.!.!.!.!.!.!.!.!.!.!.!.!.!.!.!.(.w./ * ",
"* !.!.!.!.!.!.!.!.!.!.!.!.!.!.!.!.!.!.!.c.$ R !.!.!.!.!.!.!.!.!.!.!.!.!.!.!.!.!.!.!.!.!.!.!.}.q.K * ",
"* !.!.!.!.!.!.!.!.!.!.!.!.!.!.!.!.!.!.!.b.@ =.!.!.!.!.!.!.!.!.!.!.!.!.!.!.!.!.!.!.!.!.!.!.!.!.q.K * ",
"* !.!.!.!.!.!.!.!.!.!.!.!.!.!.!.!.!.!.!.b.o R !.!.!.!.!.!.!.!.!.!.!.!.!.!.!.!.!.!.!.!.!.!.!.!.q./ * ",
"* !.!.!.!.!.!.!.!.!.!.!.!.!.!.!.!.!.E.}.b.o *.!.!.!.!.!.E.E.}.}.!.!.!.!.!.!.!.!.!.!.!.!.!.!.!.q./ * ",
"* !.!.!.!.!.!.!.!.!.!.!.!.!.!.!.!.E.E.}.M.o / !.!.!.!.!.E.E.E.}.!.!.!.!.!.!.!.}.!.!.!.!.!.!.!.q.K * ",
"* K / / K / / E K / K / / / / E / K E / *.i *./ / E X.E ;.E / / E ;.K / E ( / / / / / / E / E / *.  ",
"- f f - - - i - - - - * - - - - f - - w - - - r i - r - i i i i i % - * - - ; - - - - ; - - - i r * ",
"  @X$X$X%X@X$X$X@X4.B %X%X&X&X%X$X$X$X$X@X&X@X&X%X%X%X%X%X%X%X%X@X(.- *.%X%X@X@X@X$X&X$X$X@X@X%X@X* ",
"* XX.X.X.X.X.X.X(.6.B .X(.(..X(.(..X.X(..X(.(.!..X(.}.}.XX}.}.(..XG.- *..X(..X.X.X.X(..X.X.X(..X(.* ",
"  !.!.!.!.!.!.!.(.,.N (.!.!.!.!.!.!.!.!.!.!.!.!.!.!.!.!.!.!.!.!.}.F.w / !.E.!.!.!.!.!.!.!.!.!.!.!.* ",
"* !.!.!.!.!.!.!.XX,.M !.!.!.!.!.!.!.!.!.!.!.!.!.!.!.!.!.!.!.!.!.!.F.w =.!.E.E.!.!.!.!.!.!.!.!.!.!.* ",
"* !.!.!.!.!.!.!._.4.k @X!.!.!.!.!.!.!.!.!.!.!.!.!.!.!.!.!.!.!.!.!.S.< X.!.!.!.!.!.!.!.!.!.!.!.!.!.* ",
"* !.!.!.!.!.!.!.}.X.k XX!.!.!.!.!.!.!.!.!.!.!.!.!.!.!.!.!.!.!.!.!.S.- / !.!.!.!.!.!.!.!.!.!.!.!.!.* ",
"* !.!.!.!.!.!.!..X4.k '.!.!.!.!.!.!.!.!.!.!.!.!.!.!.!.!.!.!.!.!.!.S.- X.!.!.!.!.!.!.!.!.!.!.!.!.!.* ",
"* !.!.!.!.!.!.!.!.,.b XX!.!.!.!.!.!.!.!.!.!.!.!.!.!.!.!.!.!.!.!.!.S.w X.!.!.!.!.!.!.!.!.!.!.!.!.!.* ",
"* !.!.!.!.!.!.!.(.,.b .X!.!.!.!.!.!.!.!.!.!.!.!.!.!.!.!.!.!.!.!.K.F.- ( !.!.!.!.!.!.!.!.!.!.!.!.!.* ",
"* !.!.!.!.!.!.}._.,.N XX!.!.!.!.!.!.!.!.!.!.!.!.!.!.!.!.!.!.!.!.}.F.w ( !.!.!.!.!.!.!.!.!.!.!.!.!.* ",
"* !.!.Y.L.L.K.K.!.:.k (.!.!.Y.Y.L.H.!.Y.L.L.K.K.H.!.K.Y.L.G.!.!.K.A.- / }.!.E.K.Y.Y.Y.L.L.K.H.!.K.  ",
"*   * *         *   - * * * * *                 *       * o * * - o - o o       *   * *             "
};
