/* XPM */
static char *e976f7e8b6ed4581c981a77a755126124dcuRu3Eo7DgDNbx[] = {
/* columns rows colors chars-per-pixel */
"64 64 8 1 ",
"  c black",
". c #663931",
"X c #4B692F",
"o c #4F5277",
"O c #37946E",
"+ c #65738C",
"@ c #7C94A1",
"# c #9BADB7",
/* pixels */
"++++++++++++++++++++++++++++++++++++++++++++++++++++++++++++++++",
"++++++++++++++++++++++++++++++++++++++++++++++++++++++++++++++++",
"++++++++++++++++++++++++++++++++++++++++++++++++++++++++++++++++",
"++++++++++++++++++++++++++++++++++++++++++++++++++++++++++++++++",
"oooooooooooooooooooooooooooooooooooooooooooooooooooooooooooooooo",
"oooooooooooooooooooooooooooooooooooooooooooooooooooooooooooooooo",
"++++++++++++++++++++++++++++++++++++++++++++++++++++++++++++++++",
"++++++++++++++++++++++++++++++++++++++++++++++++++++++++++++++++",
"++++++++++++++++++++++++++++++++++++++++++++++++++++++++++++++++",
"++++++++++++++++++++++++++++++++++++++++++++++++++++++++++++++++",
"++++++++++++++++++++++++++++++++++++++++++++++++++++++++++++++++",
"++++++++++++++++++++++++++++++++++++++++++++++++++++++++++++++++",
"+++++++oooooooooooooooooooooooooooooooooooooooooooooooooo+++++++",
"++++++o@@@@@@@@@@@@@@@@@@@@@@@@@@@@@@@@@@@@@@@@@@++@@@@@@o++++++",
"+++++o@@@@@@@@@@@@@@@@@@@@@@@@@@@@@@@@@@@@@@@@@@@++@@@@@@@o+++++",
"++++o@@@                                                @@@o++++",
"+++o@@@                                                  @@o++++",
"+++o@+                                          #        @@o++++",
"+++o@+                                         # #       @@o++++",
"+++o@+                                          #        @@o++++",
"+++o@+    .                                              @@o++++",
"+++o@+                                                   @@o++++",
"+++o@+                                                   @@o++++",
"+++o@+                                                   @@o++++",
"+++o@+                                  #                @@o++++",
"+++o@+                                                   @@o++++",
"+++o@+                                                   @@o++++",
"+++o@+                                                   @@o++++",
"+++o@+                     #                             @@o++++",
"+++o@+            .       # #                            @@o++++",
"+++o@+           . .       #               XOOXX         @@o++++",
"+++o@+            .                       XOOXXOX        @@o++++",
"+++o@+                                   XOOOXXOOO       @@o++++",
"+++o@+                                  OOOXOOXXOOO      @@o++++",
"+++o@+                                  OOXOOOOXOOO      @@o++++",
"+++o@+                                  XOOOXXOXOOO      @@o++++",
"+++o@+                                  XXOXOXOOOOX      @@o++++",
"+++o@@++++++++                          XXXOOOOOOOX      @@o++++",
"+++o@@@@@@@@@@+                          XXXOOOOOX       @@o++++",
"++++ooooooooo@@+                 #        XXXXXXO        @@o++++",
"+++++++++++++o@@+                          XXXXX         @@o++++",
"++++++++++++++o@@+                                       @@o++++",
"+++++++++++++++o@@+                                      @@o++++",
"++++++++++++++++o@@+                                     @@o++++",
"+++++++++++++++++o@@+                                    @@o++++",
"++++++++++++++++++o@@++++++++++++++++++++++++++++++++++++@@o++++",
"+++++++++++++++++++o@@@@@@@@@@@@++@@@@@@@@@@@@@@@@@@@@@@@@@o++++",
"++++++++++++++++++++ooooooooooooooooooooooooooooooooooooooo+++++",
"++++++++++++++++++++++++++++++++++++++++++++++++++++++++++++++++",
"++++++++++++++++++++++++++++++++++++++++++++++++++++++++++++++++",
"++++++++++++++++++++++++++++++++++++++++++++++++++++++++++++++++",
"++++++++++++++++++++++++++++++++++++++++++++++++++++++++++++++++",
"++++++++++++++++++++++++++++++++++++++++++++++++++++++++++++++++",
"oooooooooooooooooooooooooooooooooooooooooooooooooooooooooooooooo",
"oooooooooooooooooooooooooooooooooooooooooooooooooooooooooooooooo",
"++++++++++++++++++++++++++++++++++++++++++++++++++++++++++++++++",
"++++++++++++++++++++++++++++++++++++++++++++++++++++++++++++++++",
"++++++++++++++++++++++++++++++++++++++++++++++++++++++++++++++++",
"++++++++++++++++++++++++++++++++++++++++++++++++++++++++++++++++",
"++++++++++++++++++++++++++++++++++++++++++++++++++++++++++++++++",
"++++++++++++++++++++++++++++++++++++++++++++++++++++++++++++++++",
"++++++++++++++++++++++++++++++++++++++++++++++++++++++++++++++++",
"oooooooooooooooooooooooooooooooooooooooooooooooooooooooooooooooo",
"@@@@@@@@@@@@@@@@@@@@@@@@@@@@@@@@@@@@@@@@@@@@@@@@@@@@@@@@@@@@@@@@"
};
