/* XPM */
static char *a3c0c4fdde6d445797defee0ec764163ydBZpIWDT88wcGxB[] = {
/* columns rows colors chars-per-pixel */
"64 64 11 1 ",
"  c black",
". c #4F5277",
"X c #DF7126",
"o c #D95763",
"O c #6ABE30",
"+ c #FBF236",
"@ c #99E550",
"# c #65738C",
"$ c #7C94A1",
"% c #EEC39A",
"& c #CBDBFC",
/* pixels */
"#########$.#####################################################",
"#########$.#####################################################",
"#########$.#####################################################",
"#########$.#####################################################",
"#########$.#####################################################",
"#########$.#####################################################",
"#########$.#####################################################",
"#########$.......................................###############",
"#########$$$$$$$$$$$$$$$$$$$$$$$$$$$$$$$$$$$$$$$.###############",
"###############################################$.###############",
"###########.##.##.##.##########################$.###############",
"###############################################$.###############",
"###############################################$.###############",
"###############################################$.###############",
"###############################################$.###############",
"###############################################$.###############",
"###############################################$.###############",
"###############################################$.###############",
"###############################################$.###############",
"###############################################$.###############",
"###############################################$.###############",
"###############################################$.###############",
"##############################...........................#######",
"#############################.                           .######",
"###################...........   O                   O   .######",
"##################.$$$$$$$$$$.  O                     O  .######",
"##################.$..........  O        OOO          O  .######",
"##################.$.########.  O        OO OO        O  .######",
"##################.$.########.  O        OO   O       O  .######",
"##################.$.########.  O   OO   OOOOO OO     O  .######",
"##########...............####.  O  OOO  OOOOOOO  O    O  .######",
"#########.$$$$$$$$$$$$$$$.###.  O   OOOOOOOOOOOOOOOO  O  .######",
"#########.$$$$$$$$$$$$$$$.###.  O   OOOOOOOOOOOOOOOO  O  .######",
"#########.$O$O$O$o$o$@$@$.###.  O  OOO  OOOOOOO  O    O  .######",
"#########.$$$$$$$$$$$$$$$.###.  O   OO   OOOOO OO     O  .######",
"#########.$$#$$$$#$$$$#$$.###.  O        OO   O       O  .######",
"#########.$&&&$$$#$$$$#$$.....  O        OO OO        O  .######",
"#########.$$#$$$$#$$$$#$$.$$$.  O        OOO          O  .######",
"#########.$$#$$$$#$$$$#$$.....  O                     O  .######",
"#########.$$#$$$&&&$$&&&$.###.  O                     O  .######",
"#########.$$#$$$$#$$$$#$$.###.   O  X X % % + + O O  O   .######",
"#########.$$$$$$$$$$$$$$$.###.                           .######",
"##########...............#####...........................#######",
"##############.$.###.$.#########################################",
"##############.$.###.$.#########################################",
"##########.....................#################################",
"#########.$$$$$$$$$$$$$$$$$$$$$.################################",
"#########.$#$#$#$#$#$#$#$#$##$$.################################",
"#########.$$#$#$#$#$#$#$#$$##$$.################################",
"#########.$#$#$#$#$#$#$#$#$##$$.################################",
"#########.$$$$$$$$$$$$$$$$$##$$.################################",
"#########.$$#$##$######$##$$$$$.################################",
"##########.$$$$$$$$$$$$$$$$$$$.#################################",
"###########...................##################################",
"#####################$.#########################################",
"#####################$.#########################################",
"#####################$.#########################################",
"#####################$.#########################################",
"#####################$.#########################################",
"#####################$.#########################################",
"#####################$.#########################################",
"#####################$.#########################################",
"................................................................",
"$$$$$$$$$$$$$$$$$$$$$$$$$$$$$$$$$$$$$$$$$$$$$$$$$$$$$$$$$$$$$$$$"
};
