/* XPM */
static char *_9a878df38224c9ecdfd9d52b7fe4247z09axSMUl2p59vKP[] = {
/* columns rows colors chars-per-pixel */
"64 64 4 1 ",
"  c #4F5277",
". c #65738C",
"X c #7C94A1",
"o c #A0B9BA",
/* pixels */
"... X ........................... X                  X .........",
"... X ........................... X  XX    XX    XX  X .........",
"... X ........................... X  XX    XX    XX  X .........",
"... X ........................... X                  X .........",
"... X ........................... X                  X .........",
"... X ........................... XXXXXXXXXXXXXXXXXXXX .........",
"... X ............................                    ..........",
"... X ..........................................................",
"... X ..........................................................",
"... X ..........................................................",
"... X ..........................................................",
"... X ..........................................................",
"... X .....                                        .............",
"... X .... XXXXXXXX...XXXXXXXXXXXXXXXXXXXXXXXXXXXXX ............",
"... X ... XX                                      XX ...........",
"... X .. XX  ....................................  XX ..........",
"... X .. X  ......................................  X ..........",
"... X .. X XXXXXXXXXXXXXXXXXXXXXXXXXXXXXXXXXXXXXXXX X ..........",
"... X .. X XXXXXXXXXXXXXXXXXXXXXXXXXXXXXXXXXXXXXXXX X ..........",
"... X .. X XXXXXXXXXXXXXXXXXXXXXXXXXXXXXXXXXXXXXXXX X ..........",
"... X .. X XXXXXXXXXXX...XXXXXXXXXXXXXXXXXXXXXXXXXX X ..........",
"... X .. X XXXXXXXXXXX...XXXXXXXXXXXXXXXXXXXXXXXXXX X ..........",
"... X .. X XXXXXXXXXXX...XXXXXXXXXXXXXXXXXXXXXXXXXX X ..........",
"... X .. X XXXXXXXXXXXoooXXXXXXXXXXXXXXXXXXXXXXXXXX X ..........",
"... X .. X XXXXXXXXXXXXXXXXXXXXXXXXXXXXXXXXXXXXXXXX X ..........",
"... X .. X XXXXXXXXXXXXXXXXXXXXXXXXXXXXXXXXXXXXXXXX X ..........",
"... X .. X XXXXXXXXXXXXXXXXXXXXXXXXXXXXXXXXXXXXXXXX X ..........",
"... X .. X XXXXXXXXXXXXXXXXXXXXXXXXXXXXXXXXXXXXXXXX X ..........",
"... X .. X XXXXXXXXXXXXXXXXXXXXXXXXXXXXXXXXXXXXXXXX X ..........",
"... X .. X XXXXXXXXXXXXXXXXXXXXXXXXXXXXXXXXXXXXXXXX X ..........",
"... X .. X XXXXXXXXXXXXXXXXXXXXXXXXXXXXXXXXXXXXXXXX X ..........",
"... X .. X           XXXXXXXXXXXXXXXXXXXX           X ..........",
"... X .. X .......... XXXXXXXXXXXXXXXXXX .......... X ..........",
"... X .. X ooooooooo.. XXXXXXXXXXXXXXXX ..ooooooooo . ..........",
"... X .. X XXXXXXXXXo.. XXXXXXXXXXXXXX ..oXXXXXXXXX . ..........",
"... X .. . XXXXXXXXXXo.. XXXXXXXXXXXX ..oXXXXXXXXXX . ..........",
"... X .. . XXXXXXXXXXXo.. XXXXXXXXXX ..oXXXXXXXXXXX . ..........",
"... X .. . XXXXXXXXXXXXo.. XXXXXXXX ..oXXXXXXXXXXXX . ..........",
"... X .. . XXXXXXXXXXXXXo.. XXXXXX ..oXXXXXXXXXXXXX . ..........",
"... X .. . XXXXXXXXXXXXXXo.. XXXX ..oXXXXXXXXXXXXXX . ..........",
"... X .. X XXXXXXXXXXXXXXXo.. XX ..oXXXXXXXXXXXXXXX . ..........",
"... X .. X XXXXXXXXXXXXXXXXo..  ..oXXXXXXXXXXXXXXXX . ..........",
"... X .. X XXXXXXXXXXXXXXXXXo....oXXXXXXXXXXXXXXXXX X ..........",
"... X .. X XXXXXXXXXXXXXXXXXXooooXXXXXXXXXXXXXXXXXX X ..........",
"... X .. X XXXXXXXXXXXXXXXXXXXXXXXXXXXXXXXXXXXXXXXX X ..........",
"... X .. X ...XXXXXXXXXXXXXXXXXXXXXXXXXXXXXXXXXX... X ..........",
"... X .. X ...XXXXXXXXXXXXXXXXXXXXXXXXXXXXXXXXXX... X ..........",
"... X .. X oooXXXXXXXXXXXXXXXXXXXXXXXXXXXXXXXXXXooo X ..........",
"... X .. X XXXXXXXXXXXXXXXXXXXXXXXXXXXXXXXXXXXXXXXX X ..........",
"... X .. X XXXXXXXXXXXXXXXXXXXXXXXXXXXXXXXXXXXXXXXX X ..........",
"... X .. X XXXXXXXXXXXXXXXXXXXXXXXXXXXXXXXXXXXXXXXX X ..........",
"... X .. X XXXXXXXXXXXXXXXXXXXXXXXXXXXXXXXXXXXXXXXX X ..........",
"... X .. X XXXXXXXXXXXXXXXXXXXXXXXXXXXXXXXXXXXXXXXX X ..........",
"... X .. X XXXXXXXXXXXXXXXXXXXXXXXXXXXXXXXXXXXXXXXX X ..........",
"... X .. X XXXXXXXXXXXXXXXXXXXXXXXXXXXXXXXXXXXXXXXX X ..........",
"... X .. X XXXXXXXXXXXXXXXXXXXXXXXXXXXXXXXXXXXXXXXX X ..........",
"... X .. X XXXXXXXXXXXXXXXXXXXXXXXXXXXXXXXXXXXXXXXX X ..........",
"... X .. X XXXXXXXXXXXXXXXXXXXXXXXXXXXXXXXXXXXXXXXX X ..........",
"... X .. X XXXXXXXXXXXXXXXXXXXXXXXXXXXXXXXXXXXXXXXX X ..........",
"... X .. X XXXXXXXXXXXXXXXXXXXXXXXXXXXXXXXXXXXXXXXX X ..........",
"... X .. X XXXXXXXXXXXXXXXXXXXXXXXXXXXXXXXXXXXXXXXX X ..........",
"... X .. X XXXXXXXXXXXXXXXXXXXXXXXXXXXXXXXXXXXXXXXX X ..........",
"         X                                          X           ",
"XXXXXXXX   XXXXXXXXXXXXXXXXXXXXXXXXXXXXXXXXXXXXXXXX   XXXXXXXXXX"
};
