/* XPM */
static char *_bc5c272f23147c5b5b8d1ea758e72e3QYgizjq3SAyHrHze[] = {
/* columns rows colors chars-per-pixel */
"64 64 12 1 ",
"  c black",
". c #222034",
"X c #3F3F74",
"o c #4F5277",
"O c #D9A066",
"+ c #65738C",
"@ c #7C94A1",
"# c #5FCDE4",
"$ c #9BADB7",
"% c #EEC39A",
"& c #CBDBFC",
"* c white",
/* pixels */
"++++++++++++++++++++++++++++++++o@oooooooooooo@o++++++++++++++++",
"++++++++++++++++++++++++++++++++o@@@@@@@@@@@@@@o++++++++++++++++",
"+++++++++++++++++++++++++++++++++oooooooooooooo+++++++++++++++++",
"++++++++++++++++++++++++++++++++++++++++++++++++++++++++++++++++",
"++++++++++++++++++++++++++++++++++++++++++++++++++++++++++++++++",
"++++++++++++++++++++++++++++++++++++++++++++++++++++++++++++++++",
"++++++++++++++++++++++++++++++++++++++++++++++++++++++++++++++++",
"++++++++++oooooooooooooooooooooooooooooooooooooooooo++++++++++++",
"+++++++++o                +                        o++++++++++++",
"+++++++++o                +                        o++++++++++++",
"+++++++++o                +                        o++++++++++++",
"+++++++++o    ............+   .....................o++++++++++++",
"+++++++++o    ............+   .....................o++++++++++++",
"+++++++++o    ............+   .....................o++++++++++++",
"+++++++++o    ............+   .....................o++++++++++++",
"+++++++++o    $$$$$.......+..++++++++++++++++++++++o++++++++++++",
"+++++++++o   $$OOOO$......+   .......+.............o++++++++++++",
"+++++++++o  $$OX$$XO......+   .......+.............o++++++++++++",
"+++++++++o  $OXXXXXX......+   .......+.............o++++++++++++",
"+++++++++o  $OXXXXXX......+   .......+.............o++++++++++++",
"+++++++++o  $OXXXXXX......+   .......+.............o++++++++++++",
"+++++++++o  $OXXXXXX......+   ......O+.............o++++++++++++",
"+++++++++o   $OXXXXO......+   .....$OOO............o++++++++++++",
"+++++++++o+++++++++++++++++   ....%O$$%O...........o++++++++++++",
"+++++++++o                +   ...%%OO$$%O..........o++++++++++++",
"+++++++++o                +   ...%OOO$$%O..........o++++++++++++",
"+++++++++o                +   ...%OOO$$%O..........o++++++++++++",
"+++++++++o    ............+   ...OOOO$$$...........o++++++++++++",
"+++++++++o    ............+   ...OOOO$$$...........o++++++++++++",
"+++++++++o    ............+   ...OOO&$$$...........o++++++++++++",
"+++++++++o    ...$........+   ...&&&&$$$...........o++++++++++++",
"+++++++++o    ..$O$%$%$%..+   ...&&&&$$$...........o++++++++++++",
"+++++++++o    .$O#OOOO....+   ....&&&&$$...........o++++++++++++",
"+++++++++o    $*$O$$$$$$..+   ....&&&&$$...........o++++++++++++",
"+++++++++o   $*$..........+   ....$&&&$$...........o++++++++++++",
"+++++++++o   $$...........+   ....$&&&&$...........o++++++++++++",
"+++++++++o    ............+   .....$&&&&...........o++++++++++++",
"+++++++++o+++++++++++++++++   .....$$&&&&..........o++++++++++++",
"+++++++++o                +   .....$$$&&&..........o++++++++++++",
"+++++++++o                +   .....$$$$&&..........o++++++++++++",
"+++++++++o                +   ......$$$$...........o++++++++++++",
"+++++++++o    ............+   ......$$$$...........o++++++++++++",
"+++++++++o    ............+   ......$$$$...........o++++++++++++",
"+++++++++o    ............+   ......$$$O...........o++++++++++++",
"+++++++++o    ............+   ......$$OO...........o++++++++++++",
"+++++++++o    ............+   ......$$%O...........o++++++++++++",
"++++++++++o   ............+   ......$$$%...........o++++++++++++",
"+++++++++++o   ...........+   ......$$$$...........o++++++++++++",
"+++++++++++o   .$$$$.$$$$.+   ......$$$$...........o++++++++++++",
"+++++++++++o   ..$$...$$..+   ......$$$$...........o++++++++++++",
"+++++++++++o   ..$$...$$..+   ......$$$$...........o++++++++++++",
"+++++++++++o   ..$$...$$..+   ......$$$$...........o++++++++++++",
"+++++++++++o   ..$$...$$..+   .......$$............o++++++++++++",
"+++++++++++o   ..$$...$$..+   .....................o++++++++++++",
"+++++++++++o   .$$$..$$$..+   .....................o++++++++++++",
"+++++++++++o   $$$$.$$$$..+   .....................o++++++++++++",
"+++++++++++ooooooooooooooooooooooooooooooooooooooooo++++++++++++",
"++++++++++++++++++++++++++++++++++++++++++++++++++++++++++++++++",
"++++++++++++++++++++++++++++++++++++++++++++++++++++++++++++++++",
"++++++++++++++++++++++++++++++++++++++++++++++++++++++++++++++++",
"++++++++++++++++++++++++++++++++++++++++++++++++++++++++++++++++",
"++++++++++++++++++++++++++++++++++++++++++++++++++++++++++++++++",
"oooooooooooooooooooooooooooooooooooooooooooooooooooooooooooooooo",
"@@@@@@@@@@@@@@@@@@@@@@@@@@@@@@@@@@@@@@@@@@@@@@@@@@@@@@@@@@@@@@@@"
};
